<svg width="155" height="25" viewBox="0 0 155 25" fill="none" xmlns="http://www.w3.org/2000/svg">
<path d="M18.7863 13.6341L13.3954 22.8669L8.00448 13.6341H18.7863ZM20.2305 12.8088H6.55444L13.3954 24.5L20.2305 12.8088Z" fill="#fff"/>
<path d="M28.1591 2.15038L33.55 11.3833H22.7681L28.1591 2.15038ZM28.1591 0.5L21.3181 12.1912H35L28.1591 0.5Z" fill="#fff"/>
<path d="M0 0.5L5.7359 10.8409L12.0038 0.759661L0 0.5Z" fill="#4CAF4F"/>
<path d="M13.3955 1.40576L19.4121 11.6889H7.36728L13.3955 1.40576Z" fill="#4CAF4F"/>
<path d="M20.9615 13.9341L26.9839 24.5H14.6526L20.7744 13.9341H20.9615Z" fill="#4CAF4F"/>
<path d="M22.2653 13.2935L28.1591 23.6978L34.1347 13.2935H22.2653Z" fill="#4CAF4F"/>
<path d="M60.0327 2.16895V22.5326H56.3139L47.4545 9.71582H47.3054V22.5326H43V2.16895H46.7784L55.5682 14.9758H55.7472V2.16895H60.0327Z" fill="#fff"/>
<path d="M70.4705 22.8309C68.8995 22.8309 67.5472 22.5127 66.4137 21.8763C65.2868 21.2333 64.4184 20.3252 63.8086 19.1519C63.1987 17.972 62.8938 16.5766 62.8938 14.9658C62.8938 13.3948 63.1987 12.016 63.8086 10.8295C64.4184 9.6429 65.2769 8.71819 66.3839 8.05531C67.4975 7.39243 68.8034 7.06099 70.3015 7.06099C71.3091 7.06099 72.247 7.2234 73.1154 7.54821C73.9904 7.86639 74.7527 8.34698 75.4023 8.98997C76.0586 9.63296 76.569 10.4417 76.9336 11.4161C77.2982 12.3839 77.4805 13.5174 77.4805 14.8167V15.98H64.5842V13.355H73.4933C73.4933 12.7452 73.3607 12.2049 73.0955 11.7343C72.8304 11.2636 72.4625 10.8957 71.9918 10.6306C71.5278 10.3588 70.9876 10.2229 70.3711 10.2229C69.7281 10.2229 69.158 10.3721 68.6609 10.6704C68.1703 10.962 67.7859 11.3564 67.5075 11.8536C67.229 12.3441 67.0865 12.891 67.0799 13.4942V15.99C67.0799 16.7457 67.2191 17.3986 67.4975 17.9488C67.7826 18.499 68.1836 18.9232 68.7006 19.2215C69.2177 19.5198 69.8308 19.6689 70.5401 19.6689C71.0108 19.6689 71.4416 19.6027 71.8327 19.4701C72.2238 19.3375 72.5586 19.1386 72.837 18.8735C73.1154 18.6083 73.3275 18.2835 73.4734 17.8991L77.391 18.1576C77.1921 19.0989 76.7844 19.9208 76.168 20.6235C75.5581 21.3195 74.7693 21.8631 73.8015 22.2542C72.8403 22.6386 71.73 22.8309 70.4705 22.8309Z" fill="#fff"/>
<path d="M83.511 7.25985L86.315 12.5993L89.1886 7.25985H93.5337L89.109 14.8962L93.6531 22.5326H89.3278L86.315 17.2528L83.3519 22.5326H78.9769L83.511 14.8962L79.136 7.25985H83.511Z" fill="#fff"/>
<path d="M102.403 22.8309C100.839 22.8309 99.493 22.4994 98.3661 21.8366C97.2459 21.1671 96.3841 20.239 95.7809 19.0525C95.1843 17.8659 94.886 16.5004 94.886 14.9559C94.886 13.3915 95.1876 12.0193 95.7908 10.8394C96.4007 9.65285 97.2657 8.72813 98.386 8.06525C99.5063 7.39574 100.839 7.06099 102.383 7.06099C103.716 7.06099 104.882 7.30294 105.883 7.78684C106.884 8.27074 107.676 8.9502 108.26 9.8252C108.843 10.7002 109.164 11.7277 109.224 12.9076H105.227C105.114 12.1453 104.816 11.5321 104.332 11.0681C103.855 10.5974 103.228 10.3621 102.453 10.3621C101.797 10.3621 101.223 10.5411 100.733 10.8991C100.249 11.2504 99.8709 11.7641 99.5991 12.4403C99.3273 13.1164 99.1914 13.935 99.1914 14.8962C99.1914 15.8707 99.324 16.6992 99.5891 17.382C99.8609 18.0648 100.242 18.5851 100.733 18.9431C101.223 19.301 101.797 19.48 102.453 19.48C102.937 19.48 103.371 19.3806 103.755 19.1817C104.146 18.9829 104.468 18.6945 104.72 18.3167C104.978 17.9322 105.147 17.4715 105.227 16.9346H109.224C109.158 18.1012 108.84 19.1287 108.27 20.017C107.706 20.8986 106.927 21.588 105.933 22.0851C104.939 22.5823 103.762 22.8309 102.403 22.8309Z" fill="#fff"/>
<path d="M118.896 22.8309C117.325 22.8309 115.973 22.5127 114.839 21.8763C113.713 21.2333 112.844 20.3252 112.234 19.1519C111.625 17.972 111.32 16.5766 111.32 14.9658C111.32 13.3948 111.625 12.016 112.234 10.8295C112.844 9.6429 113.703 8.71819 114.81 8.05531C115.923 7.39243 117.229 7.06099 118.727 7.06099C119.735 7.06099 120.673 7.2234 121.541 7.54821C122.416 7.86639 123.179 8.34698 123.828 8.98997C124.484 9.63296 124.995 10.4417 125.359 11.4161C125.724 12.3839 125.906 13.5174 125.906 14.8167V15.98H113.01V13.355H121.919C121.919 12.7452 121.786 12.2049 121.521 11.7343C121.256 11.2636 120.888 10.8957 120.418 10.6306C119.954 10.3588 119.413 10.2229 118.797 10.2229C118.154 10.2229 117.584 10.3721 117.087 10.6704C116.596 10.962 116.212 11.3564 115.933 11.8536C115.655 12.3441 115.512 12.891 115.506 13.4942V15.99C115.506 16.7457 115.645 17.3986 115.923 17.9488C116.208 18.499 116.609 18.9232 117.126 19.2215C117.643 19.5198 118.257 19.6689 118.966 19.6689C119.437 19.6689 119.867 19.6027 120.259 19.4701C120.65 19.3375 120.984 19.1386 121.263 18.8735C121.541 18.6083 121.753 18.2835 121.899 17.8991L125.817 18.1576C125.618 19.0989 125.21 19.9208 124.594 20.6235C123.984 21.3195 123.195 21.8631 122.227 22.2542C121.266 22.6386 120.156 22.8309 118.896 22.8309Z" fill="#fff"/>
<path d="M132.906 13.703V22.5326H128.67V7.25985H132.707V9.95446H132.886C133.224 9.0662 133.791 8.36355 134.587 7.8465C135.382 7.32283 136.347 7.06099 137.48 7.06099C138.541 7.06099 139.465 7.293 140.254 7.75701C141.043 8.22103 141.656 8.88391 142.094 9.74565C142.531 10.6008 142.75 11.6216 142.75 12.8082V22.5326H138.514V13.5638C138.521 12.6292 138.282 11.9 137.798 11.3763C137.314 10.846 136.648 10.5809 135.8 10.5809C135.23 10.5809 134.726 10.7035 134.288 10.9488C133.857 11.194 133.519 11.552 133.274 12.0226C133.036 12.4867 132.913 13.0468 132.906 13.703Z" fill="#fff"/>
<path d="M154.212 7.25985V10.4417H145.015V7.25985H154.212ZM147.103 3.60076H151.338V17.8394C151.338 18.2305 151.398 18.5354 151.517 18.7542C151.637 18.9663 151.802 19.1154 152.015 19.2016C152.233 19.2878 152.485 19.3309 152.77 19.3309C152.969 19.3309 153.168 19.3143 153.367 19.2812C153.566 19.2414 153.718 19.2116 153.824 19.1917L154.49 22.3437C154.278 22.41 153.98 22.4862 153.596 22.5724C153.211 22.6652 152.744 22.7215 152.194 22.7414C151.173 22.7812 150.278 22.6453 149.509 22.3337C148.747 22.0222 148.153 21.5383 147.729 20.882C147.305 20.2258 147.096 19.3972 147.103 18.3962V3.60076Z" fill="#fff"/>
</svg>
