<svg width="35" height="25" viewBox="0 0 35 25" fill="none" xmlns="http://www.w3.org/2000/svg">
    <path d="M18.7863 13.6341L13.3954 22.8669L8.00448 13.6341H18.7863ZM20.2305 12.8088H6.55444L13.3954 24.5L20.2305 12.8088Z" fill="#263238"/>
    <path d="M28.1591 2.15038L33.55 11.3833H22.7682L28.1591 2.15038ZM28.1591 0.5L21.3181 12.1912H35L28.1591 0.5Z" fill="#263238"/>
    <path d="M0 0.5L5.7359 10.8409L12.0038 0.759661L0 0.5Z" fill="#4CAF4F"/>
    <path d="M13.3955 1.40576L19.4121 11.6889H7.36731L13.3955 1.40576Z" fill="#4CAF4F"/>
    <path d="M20.9615 13.9341L26.9839 24.5H14.6526L20.7744 13.9341H20.9615Z" fill="#4CAF4F"/>
    <path d="M22.2654 13.2935L28.1591 23.6978L34.1347 13.2935H22.2654Z" fill="#4CAF4F"/>
</svg>
